<svg width="12" height="14" viewBox="0 0 12 14" version="1.1" xmlns="http://www.w3.org/2000/svg" xmlns:xlink="http://www.w3.org/1999/xlink">
<title>Group</title>
<desc>Created using Figma</desc>
<g id="Canvas" transform="translate(-4376 -5951)">
<g id="Group">
<g id="Ellipse 2">
<mask id="mask0_outline_ins">
<use xlink:href="#path0_fill" fill="white" transform="translate(4376.67 5951.33)"/>
</mask>
<g mask="url(#mask0_outline_ins)">
<use xlink:href="#path1_stroke_2x" transform="translate(4376.67 5951.33)" fill="#FFFFFF"/>
</g>
</g>
<g id="Ellipse 5">
<use xlink:href="#path2_fill" transform="translate(4380.67 5955.33)" fill="#FFFFFF"/>
</g>
</g>
</g>
<defs>
<path id="path0_fill" d="M 10.6667 5.33333C 10.6667 8.27885 5.33333 13.3333 5.33333 13.3333C 5.33333 13.3333 0 8.27885 0 5.33333C 0 2.38781 2.38781 0 5.33333 0C 8.27885 0 10.6667 2.38781 10.6667 5.33333Z"/>
<path id="path1_stroke_2x" d="M 5.33333 13.3333L 4.64546 14.0592L 5.33333 14.7111L 6.02121 14.0592L 5.33333 13.3333ZM 9.66667 5.33333C 9.66667 5.80668 9.43793 6.48996 8.96195 7.33537C 8.49309 8.17183 7.87619 9.0095 7.22563 9.80517C 6.57803 10.5984 5.93846 11.2923 5.44591 11.8044C 5.20219 12.0578 5.00299 12.2576 4.85998 12.3987C 4.78967 12.4682 4.73623 12.5201 4.69841 12.5567C 4.68007 12.5744 4.66688 12.587 4.65737 12.5961C 4.6529 12.6004 4.64993 12.6032 4.64765 12.6054C 4.64665 12.6064 4.6461 12.6069 4.6456 12.6074C 4.64541 12.6075 4.64538 12.6076 4.64529 12.6077C 4.64527 12.6077 4.64532 12.6076 4.64531 12.6076C 4.64537 12.6076 4.64546 12.6075 5.33333 13.3333C 6.02121 14.0592 6.02133 14.059 6.02148 14.0589C 6.02155 14.0588 6.02172 14.0587 6.02187 14.0585C 6.0221 14.0583 6.02255 14.0579 6.02301 14.0575C 6.0238 14.0567 6.02518 14.0554 6.02675 14.0539C 6.02959 14.0512 6.03428 14.0467 6.03989 14.0413C 6.05057 14.0311 6.06732 14.0151 6.08805 13.995C 6.12835 13.9561 6.1895 13.8966 6.26502 13.8221C 6.41367 13.6753 6.63115 13.4571 6.88742 13.1907C 7.39487 12.663 8.08863 11.9092 8.77437 11.0706C 9.45714 10.2345 10.1736 9.25626 10.7047 8.31658C 11.2287 7.38584 11.6667 6.33274 11.6667 5.33333L 9.66667 5.33333ZM 5.33333 13.3333C 6.02121 12.6075 6.02129 12.6076 6.02136 12.6076C 6.02135 12.6076 6.02139 12.6077 6.02138 12.6077C 6.02129 12.6076 6.02125 12.6075 6.02107 12.6074C 6.02056 12.6069 6.02002 12.6064 6.01902 12.6054C 6.01674 12.6032 6.01377 12.6004 6.00929 12.5961C 5.99979 12.587 5.98659 12.5744 5.96826 12.5567C 5.93044 12.5201 5.877 12.4682 5.80669 12.3987C 5.66367 12.2576 5.46448 12.0578 5.22075 11.8044C 4.7282 11.2923 4.08863 10.5984 3.44104 9.80517C 2.79048 9.0095 2.17358 8.17183 1.70472 7.33537C 1.22874 6.48996 1 5.80668 1 5.33333L -1 5.33333C -1 6.33274 -0.562069 7.38584 -0.0380493 8.31658C 0.49309 9.25626 1.20952 10.2345 1.89229 11.0706C 2.57803 11.9092 3.2718 12.663 3.77925 13.1907C 4.03552 13.4571 4.25299 13.6753 4.40164 13.8221C 4.47717 13.8966 4.53831 13.9561 4.57862 13.995C 4.59934 14.0151 4.6161 14.0311 4.62677 14.0413C 4.63239 14.0467 4.63707 14.0512 4.63992 14.0539C 4.64148 14.0554 4.64287 14.0567 4.64365 14.0575C 4.64412 14.0579 4.64457 14.0583 4.6448 14.0585C 4.64495 14.0587 4.64511 14.0588 4.64519 14.0589C 4.64533 14.059 4.64546 14.0592 5.33333 13.3333ZM 1 5.33333C 1 2.9401 2.9401 1 5.33333 1L 5.33333 -1C 1.83553 -1 -1 1.83553 -1 5.33333L 1 5.33333ZM 5.33333 1C 7.72657 1 9.66667 2.9401 9.66667 5.33333L 11.6667 5.33333C 11.6667 1.83553 8.83114 -1 5.33333 -1L 5.33333 1Z"/>
<path id="path2_fill" d="M 2.66667 1.33333C 2.66667 2.06971 2.06971 2.66667 1.33333 2.66667C 0.596954 2.66667 0 2.06971 0 1.33333C 0 0.596954 0.596954 0 1.33333 0C 2.06971 0 2.66667 0.596954 2.66667 1.33333Z"/>
</defs>
</svg>
