<svg width="13" height="10" viewBox="0 0 13 10" version="1.1" xmlns="http://www.w3.org/2000/svg" xmlns:xlink="http://www.w3.org/1999/xlink">
<title>Path 5</title>
<desc>Created using Figma</desc>
<g id="Canvas" transform="translate(-7851 -6103)">
<g id="Path 5">
<use xlink:href="#path0_stroke" transform="translate(7852 6103.5)" fill="#3CBA37"/>
</g>
</g>
<defs>
<path id="path0_stroke" d="M 0.353553 4.64645C 0.158291 4.45118 -0.158291 4.45118 -0.353553 4.64645C -0.548816 4.84171 -0.548816 5.15829 -0.353553 5.35355L 0.353553 4.64645ZM 3.92857 8.92857L 3.57502 9.28213C 3.67589 9.38299 3.81503 9.43598 3.95744 9.42774C 4.09985 9.4195 4.23197 9.35083 4.32053 9.239L 3.92857 8.92857ZM 11.392 0.310432C 11.5634 0.0939586 11.5269 -0.220513 11.3104 -0.391959C 11.094 -0.563406 10.7795 -0.526905 10.608 -0.310432L 11.392 0.310432ZM -0.353553 5.35355L 3.57502 9.28213L 4.28212 8.57502L 0.353553 4.64645L -0.353553 5.35355ZM 4.32053 9.239L 11.392 0.310432L 10.608 -0.310432L 3.53661 8.61814L 4.32053 9.239Z"/>
</defs>
</svg>
