<svg width="10" height="10" viewBox="0 0 10 10" version="1.1" xmlns="http://www.w3.org/2000/svg"
     xmlns:xlink="http://www.w3.org/1999/xlink">
    <g id="Canvas" transform="translate(-6319 -6082)">
        <g id="Vector">
            <use xlink:href="#path0_fill" transform="translate(6319 6082)" fill="#FFFFFF"/>
        </g>
    </g>
    <defs>
        <path id="path0_fill"
              d="M 5.00173 0C 4.87059 0 4.76364 0.106957 4.76364 0.238095L 4.76364 2.08333L 3.81126 4.52381L 3.81126 9.52381C 3.90984 9.80097 4.2149 10 4.52554 10L 8.14026 10C 8.66574 10 9.09264 9.5731 9.09264 9.04762C 9.09264 8.85138 9.03033 8.67095 8.92895 8.51935C 9.30004 8.38914 9.56883 8.03385 9.56883 7.61905C 9.56883 7.3856 9.48513 7.17448 9.34562 7.00893C 9.62184 6.84245 9.80693 6.53646 9.80693 6.19048C 9.80693 5.95703 9.72322 5.74591 9.58371 5.58036C 9.85994 5.41388 10 5.11871 10 4.77273C 10 4.24724 9.61812 3.80952 9.09264 3.80952L 6.51959 3.80952C 6.66468 3.35007 6.90649 2.5279 6.90649 2.14286C 6.90649 1.24628 6.24987 0 5.60441 0L 5.00173 0ZM 0.239827 3.80952C 0.171932 3.80952 0.106828 3.84022 0.0612553 3.89137C 0.0156824 3.94252 -0.00663899 4.00949 0.00173148 4.07738L 0.716017 9.79167C 0.730898 9.91071 0.834135 10 0.954112 10L 3.09697 10C 3.22811 10 3.33506 9.89397 3.33506 9.7619L 3.33506 4.04762C 3.33506 3.91648 3.22811 3.80952 3.09697 3.80952L 0.239827 3.80952ZM 2.26364 8.33333C 2.46081 8.33333 2.62078 8.4933 2.62078 8.69048C 2.62078 8.88765 2.46081 9.04762 2.26364 9.04762C 2.06646 9.04762 1.90649 8.88765 1.90649 8.69048C 1.90649 8.4933 2.06646 8.33333 2.26364 8.33333Z"/>
    </defs>
</svg>
