<svg width="56" height="56" viewBox="0 0 56 56" version="1.1" xmlns="http://www.w3.org/2000/svg"
     xmlns:xlink="http://www.w3.org/1999/xlink">
    <g id="Canvas" transform="translate(-5239 1015)">
        <g id="Group 39">
            <g id="Oval 3">
                <use xlink:href="#path0_fill" transform="translate(5239 -1015)" fill="#FFFFFF"/>
                <mask id="mask0_outline_ins">
                    <use xlink:href="#path0_fill" fill="white" transform="translate(5239 -1015)"/>
                </mask>
                <g mask="url(#mask0_outline_ins)">
                    <use xlink:href="#path1_stroke_2x" transform="translate(5239 -1015)" fill="#E36761"/>
                </g>
            </g>
            <g id="Group 37">
                <g id="Group 38">
                    <g id="Path 2">
                        <use xlink:href="#path2_fill"
                             transform="matrix(0.707107 -0.707107 0.707107 0.707107 5255.45 -995.25)" fill="#C7C7CC"/>
                    </g>
                    <g id="Path 2">
                        <use xlink:href="#path2_fill"
                             transform="matrix(-0.707107 0.707107 -0.707107 -0.707107 5278.55 -978.75)" fill="#C7C7CC"/>
                    </g>
                </g>
            </g>
            <g id="Group 37">
                <g id="Group 38">
                    <g id="Path 2">
                        <use xlink:href="#path2_fill"
                             transform="matrix(-0.707107 -0.707107 0.707107 -0.707107 5258.75 -975.451)"
                             fill="#C7C7CC"/>
                    </g>
                    <g id="Path 2">
                        <use xlink:href="#path2_fill"
                             transform="matrix(0.707107 0.707107 -0.707107 0.707107 5275.25 -998.549)" fill="#C7C7CC"/>
                    </g>
                </g>
            </g>
            <g id="Group 37">
                <g id="Group 38">
                    <g id="Path 2">
                        <use xlink:href="#path2_fill" transform="translate(5264.67 -1001)" fill="#E36761"/>
                    </g>
                    <g id="Path 2">
                        <use xlink:href="#path2_fill" transform="matrix(-1 0 0 -1 5269.33 -973)" fill="#596273"/>
                    </g>
                </g>
            </g>
            <g id="Group 37">
                <g id="Group 38">
                    <g id="Path 2">
                        <use xlink:href="#path2_fill" transform="matrix(6.12323e-17 -1 1 6.12323e-17 5253 -984.667)"
                             fill="#C7C7CC"/>
                    </g>
                    <g id="Path 2">
                        <use xlink:href="#path2_fill" transform="matrix(-6.12323e-17 1 -1 -6.12323e-17 5281 -989.333)"
                             fill="#C7C7CC"/>
                    </g>
                </g>
            </g>
            <g id="Oval 10">
                <use xlink:href="#path3_fill" transform="translate(5263.5 -990.5)" fill="#FFFFFF"/>
            </g>
        </g>
    </g>
    <defs>
        <path id="path0_fill" fill-rule="evenodd"
              d="M 28 56C 43.464 56 56 43.464 56 28C 56 12.536 43.464 0 28 0C 12.536 0 0 12.536 0 28C 0 43.464 12.536 56 28 56Z"/>
        <path id="path1_stroke_2x"
              d="M 28 59C 45.1208 59 59 45.1208 59 28L 53 28C 53 41.8071 41.8071 53 28 53L 28 59ZM 59 28C 59 10.8792 45.1208 -3 28 -3L 28 3C 41.8071 3 53 14.1929 53 28L 59 28ZM 28 -3C 10.8792 -3 -3 10.8792 -3 28L 3 28C 3 14.1929 14.1929 3 28 3L 28 -3ZM -3 28C -3 45.1208 10.8792 59 28 59L 28 53C 14.1929 53 3 41.8071 3 28L -3 28Z"/>
        <path id="path2_fill" fill-rule="evenodd" d="M 0 11.3077L 16.3333 0L 5.02564 16.3333L 0 11.3077Z"/>
        <path id="path3_fill" fill-rule="evenodd"
              d="M 3.5 7C 5.433 7 7 5.433 7 3.5C 7 1.567 5.433 0 3.5 0C 1.567 0 0 1.567 0 3.5C 0 5.433 1.567 7 3.5 7Z"/>
    </defs>
</svg>
