<svg width="44" height="42" viewBox="0 0 44 42" version="1.1" xmlns="http://www.w3.org/2000/svg" xmlns:xlink="http://www.w3.org/1999/xlink">
<title>Group 29</title>
<desc>Created using Figma</desc>
<g id="Canvas" transform="translate(-5869 -5930)">
<g id="Group 29">
<g id="Oval 13">
<mask id="mask0_outline_ins">
<use xlink:href="#path0_fill" fill="white" transform="translate(5869 5930)"/>
</mask>
<g mask="url(#mask0_outline_ins)">
<use xlink:href="#path1_stroke_2x" transform="translate(5869 5930)" fill="#00A296"/>
</g>
</g>
<g id="Group 28">
<g id="Rectangle 59">
<use xlink:href="#path2_fill" transform="matrix(0.707107 0.707107 -0.707107 0.707107 5879.65 5941.04)" fill="#E36761"/>
</g>
<g id="Rectangle 59">
<use xlink:href="#path3_fill" transform="matrix(-0.707107 0.707107 0.707107 0.707107 5908.51 5930.84)" fill="#E36761"/>
</g>
</g>
<g id="Rectangle 60">
<use xlink:href="#path4_fill" transform="translate(5889 5933)" fill="#00A296"/>
</g>
<g id="Rectangle 60">
<use xlink:href="#path4_fill" transform="matrix(6.12323e-17 -1 1 6.12323e-17 5871 5952)" fill="#00A296"/>
</g>
<g id="Rectangle 60">
<use xlink:href="#path4_fill" transform="matrix(6.12323e-17 -1 1 6.12323e-17 5905 5952)" fill="#00A296"/>
</g>
<g id="Rectangle 60">
<use xlink:href="#path4_fill" transform="translate(5889 5965)" fill="#00A296"/>
</g>
</g>
</g>
<defs>
<path id="path0_fill" fill-rule="evenodd" d="M 21 42C 32.598 42 42 32.598 42 21C 42 9.40202 32.598 0 21 0C 9.40202 0 0 9.40202 0 21C 0 32.598 9.40202 42 21 42Z"/>
<path id="path1_stroke_2x" d="M 21 46C 34.8071 46 46 34.8071 46 21L 38 21C 38 30.3888 30.3888 38 21 38L 21 46ZM 46 21C 46 7.19288 34.8071 -4 21 -4L 21 4C 30.3888 4 38 11.6112 38 21L 46 21ZM 21 -4C 7.19288 -4 -4 7.19288 -4 21L 4 21C 4 11.6112 11.6112 4 21 4L 21 -4ZM -4 21C -4 34.8071 7.19288 46 21 46L 21 38C 11.6112 38 4 30.3888 4 21L -4 21Z"/>
<path id="path2_fill" fill-rule="evenodd" d="M 0 0L 18.48 0L 18.48 5.04L 0 5.04L 0 0Z"/>
<path id="path3_fill" fill-rule="evenodd" d="M 0 0L 28.56 0L 28.56 5.04L 0 5.04L 0 0Z"/>
<path id="path4_fill" fill-rule="evenodd" d="M 0 0L 2 0L 2 4L 0 4L 0 0Z"/>
</defs>
</svg>
