<svg width="29" height="29" viewBox="0 0 29 29" version="1.1" xmlns="http://www.w3.org/2000/svg" xmlns:xlink="http://www.w3.org/1999/xlink">
<title>Group 30</title>
<desc>Created using Figma</desc>
<g id="Canvas" transform="translate(-7852 -5787)">
<g id="Group 30">
<g id="Shape">
<use xlink:href="#path0_fill" transform="translate(7852 5787)" fill="#A25FD7"/>
</g>
<g id="Shape">
<use xlink:href="#path1_fill" transform="translate(7858 5793.5)" fill="#FFFFFF"/>
</g>
</g>
</g>
<defs>
<path id="path0_fill" fill-rule="evenodd" d="M 7 29C 3.134 29 0 25.866 0 22L 0 7C 0 3.134 3.134 0 7 0L 22 0C 25.866 0 29 3.134 29 7L 29 22C 29 25.866 25.866 29 22 29L 7 29Z"/>
<path id="path1_fill" fill-rule="evenodd" d="M 2.5 15C 2.77614 15 3 14.7761 3 14.5L 3 7C 3 6.72386 2.77614 6.5 2.5 6.5L 0.5 6.5C 0.223858 6.5 0 6.72386 0 7L 0 14.5C 0 14.7761 0.223858 15 0.5 15L 2.5 15ZM 17 7C 17 5.925 16.2969 5.25 15.5 5.5L 10.5 5.5L 11.5 2L 11.5 1.5C 11.2734 1.275 11.1406 0.99 11 1L 10 0L 5 5C 4.67188 5.2125 4.5 5.5875 4.5 6L 4.5 13.5C 4.5 14.325 5.20312 15 6 15L 13 15C 13.7422 15 14.2969 14.625 14.5 14L 17 9C 16.9609 8.625 17 8.445 17 8.5L 17 7Z"/>
</defs>
</svg>
