<svg width="40" height="36" viewBox="0 0 40 36" version="1.1" xmlns="http://www.w3.org/2000/svg" xmlns:xlink="http://www.w3.org/1999/xlink">
<title>Group 20</title>
<desc>Created using Figma</desc>
<g id="Canvas" transform="translate(-5870 -5828)">
<g id="Group 20">
<g id="Rectangle 46">
<use xlink:href="#path0_fill" transform="translate(5892 5830)" fill="#E36761"/>
</g>
<g id="Rectangle 46">
<use xlink:href="#path0_fill" transform="translate(5870 5830)" fill="#028E84"/>
</g>
<g id="Group 19" opacity="0.8">
<g id="Rectangle 47">
<use xlink:href="#path1_fill" transform="translate(5895 5833)" fill="#FFFFFF"/>
</g>
<g id="Rectangle 47">
<use xlink:href="#path1_fill" transform="translate(5895 5837)" fill="#FFFFFF"/>
</g>
<g id="Rectangle 47">
<use xlink:href="#path2_fill" transform="translate(5895 5845.86)" fill="#FFFFFF"/>
</g>
<g id="Rectangle 47">
<use xlink:href="#path3_fill" transform="translate(5898 5845)" fill="#FFFFFF"/>
</g>
<g id="Rectangle 47">
<use xlink:href="#path2_fill" transform="translate(5895 5849.43)" fill="#FFFFFF"/>
</g>
<g id="Rectangle 47">
<use xlink:href="#path3_fill" transform="translate(5898 5849)" fill="#FFFFFF"/>
</g>
<g id="Rectangle 47">
<use xlink:href="#path2_fill" transform="translate(5895 5853)" fill="#FFFFFF"/>
</g>
<g id="Rectangle 47">
<use xlink:href="#path3_fill" transform="translate(5898 5853)" fill="#FFFFFF"/>
</g>
<g id="Rectangle 47">
<use xlink:href="#path2_fill" transform="translate(5895 5856.57)" fill="#FFFFFF"/>
</g>
</g>
<g id="Group 19" opacity="0.8">
<g id="Rectangle 47">
<use xlink:href="#path1_fill" transform="translate(5873 5833)" fill="#FFFFFF"/>
</g>
<g id="Rectangle 47">
<use xlink:href="#path1_fill" transform="translate(5873 5837)" fill="#FFFFFF"/>
</g>
<g id="Rectangle 47">
<use xlink:href="#path4_fill" transform="translate(5873 5845)" fill="#FFFFFF"/>
</g>
<g id="Rectangle 47">
<use xlink:href="#path3_fill" transform="translate(5876 5845)" fill="#FFFFFF"/>
</g>
<g id="Rectangle 47">
<use xlink:href="#path4_fill" transform="translate(5873 5849)" fill="#FFFFFF"/>
</g>
<g id="Rectangle 47">
<use xlink:href="#path3_fill" transform="translate(5876 5849)" fill="#FFFFFF"/>
</g>
</g>
<g id="Rectangle 46">
<use xlink:href="#path5_fill" transform="translate(5881 5828)" fill="#00A296"/>
</g>
<g id="Group 19" opacity="0.8">
<g id="Rectangle 47">
<use xlink:href="#path1_fill" transform="translate(5884 5833)" fill="#FFFFFF"/>
</g>
<g id="Rectangle 47">
<use xlink:href="#path1_fill" transform="translate(5884 5837)" fill="#FFFFFF"/>
</g>
<g id="Rectangle 47">
<use xlink:href="#path4_fill" transform="translate(5884 5845)" fill="#FFFFFF"/>
</g>
<g id="Rectangle 47">
<use xlink:href="#path3_fill" transform="translate(5887 5845)" fill="#FFFFFF"/>
</g>
<g id="Rectangle 47">
<use xlink:href="#path4_fill" transform="translate(5884 5849)" fill="#FFFFFF"/>
</g>
<g id="Rectangle 47">
<use xlink:href="#path3_fill" transform="translate(5887 5849)" fill="#FFFFFF"/>
</g>
<g id="Rectangle 47">
<use xlink:href="#path4_fill" transform="translate(5884 5853)" fill="#FFFFFF"/>
</g>
<g id="Rectangle 47">
<use xlink:href="#path3_fill" transform="translate(5887 5853)" fill="#FFFFFF"/>
</g>
<g id="Rectangle 47">
<use xlink:href="#path4_fill" transform="translate(5884 5857)" fill="#FFFFFF"/>
</g>
<g id="Rectangle 47">
<use xlink:href="#path3_fill" transform="translate(5887 5857)" fill="#FFFFFF"/>
</g>
</g>
</g>
</g>
<defs>
<path id="path0_fill" fill-rule="evenodd" d="M 0 2C 0 0.895431 0.895431 0 2 0L 16 0C 17.1046 0 18 0.895431 18 2L 18 30C 18 31.1046 17.1046 32 16 32L 2 32C 0.895431 32 0 31.1046 0 30L 0 2Z"/>
<path id="path1_fill" fill-rule="evenodd" d="M 0 0L 12 0L 12 2L 0 2L 0 0Z"/>
<path id="path2_fill" fill-rule="evenodd" d="M 0 0L 1.42857 0L 1.42857 1.42857L 0 1.42857L 0 0Z"/>
<path id="path3_fill" fill-rule="evenodd" d="M 0 0L 9 0L 9 2L 0 2L 0 0Z"/>
<path id="path4_fill" fill-rule="evenodd" d="M 0 0L 2 0L 2 2L 0 2L 0 0Z"/>
<path id="path5_fill" fill-rule="evenodd" d="M 0 2C 0 0.895431 0.895431 0 2 0L 16 0C 17.1046 0 18 0.895431 18 2L 18 34C 18 35.1046 17.1046 36 16 36L 2 36C 0.895431 36 0 35.1046 0 34L 0 2Z"/>
</defs>
</svg>
