<svg width="53" height="57" viewBox="0 0 53 57" version="1.1" xmlns="http://www.w3.org/2000/svg"
     xmlns:xlink="http://www.w3.org/1999/xlink">
    <g id="Canvas" transform="translate(-5241 1233)">
        <g id="Group 11">
            <g id="Rectangle 27">
                <use xlink:href="#path0_fill" transform="translate(5241 -1229)" fill="#E36761"/>
            </g>
            <g id="Oval 5">
                <use xlink:href="#path1_fill" transform="translate(5248 -1227)" fill="#B44F4A"/>
            </g>
            <g id="Oval 5">
                <use xlink:href="#path1_fill" transform="translate(5274 -1227)" fill="#B44F4A"/>
            </g>
            <g id="Rectangle 30">
                <use xlink:href="#path2_fill" transform="translate(5241 -1217)" fill="#FFFFFF"/>
            </g>
            <g id="Rectangle 28">
                <use xlink:href="#path3_fill" transform="translate(5250 -1233)" fill="#596273"/>
            </g>
            <g id="Rectangle 28">
                <use xlink:href="#path3_fill" transform="translate(5276 -1233)" fill="#596273"/>
            </g>
            <g id="Rectangle 31">
                <use xlink:href="#path4_fill" transform="translate(5250 -1210)" fill="#C7C7CC"/>
            </g>
            <g id="Rectangle 31">
                <use xlink:href="#path4_fill" transform="translate(5259 -1210)" fill="#C7C7CC"/>
            </g>
            <g id="Rectangle 31">
                <use xlink:href="#path4_fill" transform="translate(5268 -1210)" fill="#C7C7CC"/>
            </g>
            <g id="Rectangle 31">
                <use xlink:href="#path4_fill" transform="translate(5277 -1210)" fill="#C7C7CC"/>
            </g>
            <g id="Rectangle 31">
                <use xlink:href="#path4_fill" transform="translate(5250 -1202)" fill="#C7C7CC"/>
            </g>
            <g id="Rectangle 31">
                <use xlink:href="#path4_fill" transform="translate(5259 -1202)" fill="#C7C7CC"/>
            </g>
            <g id="Rectangle 31">
                <use xlink:href="#path4_fill" transform="translate(5268 -1202)" fill="#C7C7CC"/>
            </g>
            <g id="Rectangle 31">
                <use xlink:href="#path4_fill" transform="translate(5277 -1202)" fill="#C7C7CC"/>
            </g>
            <g id="Rectangle 31">
                <use xlink:href="#path4_fill" transform="translate(5250 -1194)" fill="#C7C7CC"/>
            </g>
            <g id="Rectangle 31">
                <use xlink:href="#path4_fill" transform="translate(5259 -1194)" fill="#C7C7CC"/>
            </g>
            <g id="Rectangle 31">
                <use xlink:href="#path4_fill" transform="translate(5268 -1194)" fill="#C7C7CC"/>
            </g>
            <g id="Rectangle 31">
                <use xlink:href="#path4_fill" transform="translate(5277 -1194)" fill="#C7C7CC"/>
            </g>
            <g id="Oval 6">
                <use xlink:href="#path5_fill" transform="translate(5274 -1196)" fill="#E36761"/>
            </g>
            <g id="Rectangle 32">
                <use xlink:href="#path6_fill" transform="translate(5283 -1192)" fill="#FFFFFF"/>
            </g>
            <g id="Rectangle 32">
                <use xlink:href="#path6_fill" transform="matrix(-1.83697e-16 1 -1 -1.83697e-16 5290 -1187)"
                     fill="#FFFFFF"/>
            </g>
        </g>
    </g>
    <defs>
        <path id="path0_fill" fill-rule="evenodd"
              d="M 0 4C 0 1.79086 1.79086 0 4 0L 45 0C 47.2091 0 49 1.79086 49 4L 49 42C 49 44.2091 47.2091 46 45 46L 4 46C 1.79086 46 0 44.2091 0 42L 0 4Z"/>
        <path id="path1_fill" fill-rule="evenodd"
              d="M 4.5 9C 6.98528 9 9 6.98528 9 4.5C 9 2.01472 6.98528 0 4.5 0C 2.01472 0 0 2.01472 0 4.5C 0 6.98528 2.01472 9 4.5 9Z"/>
        <path id="path2_fill" fill-rule="evenodd"
              d="M 0 0L 49 0L 49 33C 49 34.1046 48.1046 35 47 35L 2 35C 0.895431 35 0 34.1046 0 33L 0 0Z"/>
        <path id="path3_fill" fill-rule="evenodd"
              d="M 0 2.5C 0 1.11929 1.11929 0 2.5 0C 3.88071 0 5 1.11929 5 2.5L 5 10.5C 5 11.8807 3.88071 13 2.5 13C 1.11929 13 0 11.8807 0 10.5L 0 2.5Z"/>
        <path id="path4_fill" fill-rule="evenodd" d="M 0 0L 4 0L 4 4L 0 4L 0 0Z"/>
        <path id="path5_fill" fill-rule="evenodd"
              d="M 10 20C 15.5228 20 20 15.5228 20 10C 20 4.47715 15.5228 0 10 0C 4.47715 0 0 4.47715 0 10C 0 15.5228 4.47715 20 10 20Z"/>
        <path id="path6_fill" fill-rule="evenodd" d="M 0 0L 2 0L 2 12L 0 12L 0 0Z"/>
    </defs>
</svg>
