<svg width="48" height="30" viewBox="0 0 48 30" version="1.1" xmlns="http://www.w3.org/2000/svg" xmlns:xlink="http://www.w3.org/1999/xlink">
<title>Group 35</title>
<desc>Created using Figma</desc>
<g id="Canvas" transform="translate(-5867 -6157)">
<g id="Group 35">
<g id="Group 26">
<g id="Group 25">
<g id="Rectangle 55">
<use xlink:href="#path0_fill" transform="translate(5870 6157)" fill="#FFFFFF"/>
<mask id="mask0_outline_ins">
<use xlink:href="#path0_fill" fill="white" transform="translate(5870 6157)"/>
</mask>
<g mask="url(#mask0_outline_ins)">
<use xlink:href="#path1_stroke_2x" transform="translate(5870 6157)" fill="#00A296"/>
</g>
</g>
<g id="Rectangle 56">
<use xlink:href="#path2_fill" transform="translate(5867 6183)" fill="#00A296"/>
</g>
<g id="Rectangle 56">
<use xlink:href="#path3_fill" transform="translate(5867 6182)" fill="#028E84"/>
</g>
</g>
<g id="Rectangle 57">
<use xlink:href="#path4_fill" transform="translate(5878 6180)" fill="#00A296"/>
</g>
<g id="Path 3">
<use xlink:href="#path5_stroke" transform="translate(5877 6162.5)" fill="#E36761"/>
</g>
</g>
</g>
</g>
<defs>
<path id="path0_fill" fill-rule="evenodd" d="M 0 0L 42 0L 42 25L 0 25L 0 0Z"/>
<path id="path1_stroke_2x" d="M 0 0L 0 -2L -2 -2L -2 0L 0 0ZM 42 0L 44 0L 44 -2L 42 -2L 42 0ZM 42 25L 42 27L 44 27L 44 25L 42 25ZM 0 25L -2 25L -2 27L 0 27L 0 25ZM 0 2L 42 2L 42 -2L 0 -2L 0 2ZM 40 0L 40 25L 44 25L 44 0L 40 0ZM 42 23L 0 23L 0 27L 42 27L 42 23ZM 2 25L 2 0L -2 0L -2 25L 2 25Z"/>
<path id="path2_fill" fill-rule="evenodd" d="M 0 0L 48 0L 48 4L 0 4L 0 0Z"/>
<path id="path3_fill" fill-rule="evenodd" d="M 3 0L 45 0L 48 1.5L 0 1.5L 3 0Z"/>
<path id="path4_fill" fill-rule="evenodd" d="M 0 0L 8 0L 8 2L 0 2L 0 0Z"/>
<path id="path5_stroke" d="M 6.5 6L 7.04627 5.16239L 6.45233 4.77504L 5.89029 5.20738L 6.5 6ZM 18 13.5L 17.4537 14.3376L 18.2071 14.8289L 18.7752 14.1317L 18 13.5ZM 0.609711 11.7926L 7.10971 6.79262L 5.89029 5.20738L -0.609711 10.2074L 0.609711 11.7926ZM 5.95373 6.83761L 17.4537 14.3376L 18.5463 12.6624L 7.04627 5.16239L 5.95373 6.83761ZM 18.7752 14.1317L 29.7752 0.631673L 28.2248 -0.631673L 17.2248 12.8683L 18.7752 14.1317Z"/>
</defs>
</svg>
