<svg width="40" height="40" viewBox="0 0 40 40" version="1.1" xmlns="http://www.w3.org/2000/svg" xmlns:xlink="http://www.w3.org/1999/xlink">
<title>task-icon-3</title>
<desc>Created using Figma</desc>
<g id="Canvas" transform="translate(-8155 -6192)">
<g id="task-icon-3">
<g id="Oval 3" opacity="0.7">
<use xlink:href="#path0_fill" transform="translate(8155 6192)" fill="#FFDFB2"/>
</g>
<g id="Group 10">
<g id="Fill 8">
<use xlink:href="#path1_fill" transform="translate(8177.86 6218.8)" fill="#FF9500"/>
</g>
<g id="Fill 9">
<use xlink:href="#path2_fill" transform="translate(8181.71 6215.74)" fill="#FF9500"/>
</g>
<g id="Fill 10">
<use xlink:href="#path3_fill" transform="translate(8178.13 6221.25)" fill="#FF9500"/>
</g>
<g id="Fill 11">
<use xlink:href="#path4_fill" transform="translate(8180.43 6219.56)" fill="#FF9500"/>
</g>
<g id="Fill 12">
<use xlink:href="#path5_fill" transform="translate(8182.41 6217.39)" fill="#FF9500"/>
</g>
<g id="Fill 13">
<use xlink:href="#path6_fill" transform="translate(8183.97 6214.82)" fill="#FF9500"/>
</g>
<g id="Fill 14">
<use xlink:href="#path7_fill" transform="translate(8185.03 6211.96)" fill="#FF9500"/>
</g>
<g id="Fill 15">
<use xlink:href="#path8_fill" transform="translate(8185.53 6208.93)" fill="#FF9500"/>
</g>
<g id="Fill 16">
<use xlink:href="#path9_fill" transform="translate(8185.36 6205.94)" fill="#FF9500"/>
</g>
<g id="Fill 17">
<use xlink:href="#path10_fill" transform="translate(8171.4 6203.88)" fill="#FF9500"/>
</g>
<g id="Fill 18">
<use xlink:href="#path11_fill" transform="translate(8170.69 6218.8)" fill="#FF5E62"/>
</g>
<g id="Fill 19">
<use xlink:href="#path12_fill" transform="translate(8167.17 6215.74)" fill="#FF5E62"/>
</g>
<g id="Fill 20">
<use xlink:href="#path13_fill" transform="translate(8168.94 6221.25)" fill="#FF5E62"/>
</g>
<g id="Fill 21">
<use xlink:href="#path14_fill" transform="translate(8166.75 6219.56)" fill="#FF5E62"/>
</g>
<g id="Fill 22">
<use xlink:href="#path15_fill" transform="translate(8165 6217.39)" fill="#FF5E62"/>
</g>
<g id="Fill 23">
<use xlink:href="#path16_fill" transform="translate(8163.77 6214.82)" fill="#FF5E62"/>
</g>
<g id="Fill 24">
<use xlink:href="#path17_fill" transform="translate(8163.13 6211.96)" fill="#FF5E62"/>
</g>
<g id="Fill 25">
<use xlink:href="#path18_fill" transform="translate(8163.12 6208.93)" fill="#FF5E62"/>
</g>
<g id="Fill 26">
<use xlink:href="#path19_fill" transform="translate(8163.66 6205.94)" fill="#FF5E62"/>
</g>
<g id="Fill 27">
<use xlink:href="#path20_fill" transform="translate(8164.56 6203.88)" fill="#FF5E62"/>
</g>
</g>
</g>
</g>
<defs>
<path id="path0_fill" fill-rule="evenodd" d="M 20 40C 31.0457 40 40 31.0457 40 20C 40 8.9543 31.0457 0 20 0C 8.9543 0 0 8.9543 0 20C 0 31.0457 8.9543 40 20 40Z"/>
<path id="path1_fill" fill-rule="evenodd" d="M 1.37734 1.34714C 1.65191 0.622857 1.1602 0 1.1602 0C 1.1602 0 0.421339 0.484571 0.128768 1.15886C -0.162946 1.83314 0.132196 2.52171 0.132196 2.52171C 0.132196 2.52171 1.10334 2.07171 1.37734 1.34714Z"/>
<path id="path2_fill" fill-rule="evenodd" d="M 1.13571 1.08114C 1.10429 0.358286 0.462001 0 0.462001 0C 0.462001 0 -0.0005709 0.690571 5.28992e-07 1.38114C 0.00114339 2.07143 0.515143 2.55343 0.515143 2.55343C 0.515143 2.55343 1.16714 1.80429 1.13571 1.08114Z"/>
<path id="path3_fill" fill-rule="evenodd" d="M 1.74686 0.00521899C 0.943714 -0.0542096 0 0.413505 0 0.413505C 0 0.413505 0.253143 1.15979 1.076 1.27922C 1.89943 1.39808 2.94486 0.72779 2.94486 0.72779C 2.94486 0.72779 2.55029 0.0643618 1.74686 0.00521899Z"/>
<path id="path4_fill" fill-rule="evenodd" d="M 1.55943 0.0125759C 0.791429 0.114004 0 0.740862 0 0.740862C 0 0.740862 0.388857 1.4 1.186 1.34858C 1.98286 1.29686 2.832 0.456576 2.832 0.456576C 2.832 0.456576 2.32771 -0.0888527 1.55943 0.0125759Z"/>
<path id="path5_fill" fill-rule="evenodd" d="M 1.32086 0.0821847C 0.617429 0.333042 0 1.08161 0 1.08161C 0 1.08161 0.500286 1.62161 1.23886 1.40933C 1.978 1.19676 2.60829 0.235613 2.60829 0.235613C 2.60829 0.235613 2.02457 -0.168958 1.32086 0.0821847Z"/>
<path id="path6_fill" fill-rule="evenodd" d="M 1.04029 0.211085C 0.429714 0.59337 0 1.42251 0 1.42251C 0 1.42251 0.579429 1.8208 1.22943 1.46537C 1.88029 1.10966 2.27886 0.0819418 2.27886 0.0819418C 2.27886 0.0819418 1.65143 -0.17063 1.04029 0.211085Z"/>
<path id="path7_fill" fill-rule="evenodd" d="M 0.727429 0.397361C 0.234 0.88479 0 1.7505 0 1.7505C 0 1.7505 0.620857 1.99479 1.156 1.52136C 1.69057 1.04793 1.85514 0.0082186 1.85514 0.0082186C 1.85514 0.0082186 1.22086 -0.0906385 0.727429 0.397361Z"/>
<path id="path8_fill" fill-rule="evenodd" d="M 0.397429 0.610857C 0.0402857 1.17371 0 2.032 0 2.032C 0 2.032 0.625714 2.12057 1.02257 1.56114C 1.42 1.002 1.36 0 1.36 0C 1.36 0 0.754857 0.0477143 0.397429 0.610857Z"/>
<path id="path9_fill" fill-rule="evenodd" d="M 0.885863 1.52943C 1.13215 0.92 0.868149 0 0.868149 0C 0.868149 0 0.324149 0.177143 0.114149 0.781714C -0.0955652 1.38571 0.0478634 2.19771 0.0478634 2.19771C 0.0478634 2.19771 0.639292 2.13943 0.885863 1.52943Z"/>
<path id="path10_fill" fill-rule="evenodd" d="M 11.1126 14.4434C 12.1889 12.8769 12.9643 11.3386 13.4409 9.76914C 13.476 9.78343 13.4966 9.79029 13.4966 9.79029C 13.4966 9.79029 13.5726 9.53486 13.598 9.20629C 13.7783 8.50286 13.9006 7.79257 13.962 7.06914C 14.0166 7.07914 14.0506 7.08171 14.0506 7.08171C 14.0506 7.08171 14.0751 6.74229 14.0017 6.36429C 14.0234 5.68029 13.9926 4.98343 13.9094 4.26971C 13.9637 4.26714 13.996 4.26229 13.996 4.26229C 13.996 4.26229 13.9526 3.97771 13.8263 3.66314C 13.7643 3.26343 13.6863 2.858 13.5926 2.44629L 13.6097 2.46C 13.6097 2.46 13.8454 1.744 13.5546 1.04C 13.2637 0.336857 12.5966 0 12.5966 0C 12.5966 0 12.5166 0.724857 12.7863 1.382C 13.0257 1.96571 13.4889 2.362 13.5891 2.44343C 13.67 2.82571 13.7389 3.206 13.794 3.58486C 13.7043 3.38057 13.5791 3.17286 13.4071 3.02829C 12.9463 2.63857 12.3886 2.84229 12.3886 2.84229C 12.3886 2.84229 12.5726 3.56514 13.0011 3.95914C 13.3117 4.24429 13.6931 4.27571 13.8809 4.27057C 13.948 4.91714 13.9754 5.55771 13.9609 6.19257C 13.912 6.01514 13.8386 5.83943 13.7277 5.69571C 13.3391 5.19543 12.7131 5.27514 12.7131 5.27514C 12.7131 5.27514 12.7377 6.03971 13.0914 6.53714C 13.3403 6.88829 13.7149 7.01457 13.9143 7.05914C 13.8589 7.70829 13.7571 8.34914 13.6066 8.98257C 13.6051 8.75514 13.572 8.514 13.4714 8.30743C 13.182 7.70971 12.5177 7.64914 12.5177 7.64914C 12.5177 7.64914 12.3774 8.42314 12.6317 9.00857C 12.8226 9.44771 13.2146 9.66829 13.3977 9.75057C 13.198 10.406 12.942 11.0526 12.6283 11.6871C 12.7109 11.4066 12.7657 11.0649 12.6886 10.7571C 12.5191 10.0834 11.8486 9.87371 11.8486 9.87371C 11.8486 9.87371 11.544 10.6231 11.6791 11.274C 11.79 11.8071 12.1986 12.1343 12.3429 12.2354C 11.9546 12.9374 11.4934 13.6246 10.9531 14.2971C 10.3426 14.9309 9.72486 15.4811 9.06857 15.9811C 9.32143 15.7443 9.716 15.3046 9.79486 14.8089C 9.91343 14.0683 9.33171 13.5689 9.33171 13.5689C 9.33171 13.5689 8.72343 14.1703 8.58029 14.8694C 8.44914 15.5071 8.784 16.0614 8.84314 16.1526C 8.40429 16.4743 7.94629 16.7749 7.45914 17.0626C 6.83257 17.396 6.19914 17.6637 5.58257 17.8714C 4.95657 18.0849 4.35657 18.278 3.796 18.4469C 2.674 18.7837 1.69657 19.0303 1.01886 19.2574C 0.679143 19.3683 0.418571 19.4777 0.249429 19.5617C 0.165714 19.6043 0.102 19.6377 0.0617143 19.6631C 0.0214286 19.688 0 19.7011 0 19.7011C 0.199143 19.8103 0.3 19.8646 0.504857 19.9689C 0.504857 19.9689 0.519429 19.9591 0.548 19.94C 0.574571 19.9206 0.620857 19.8931 0.682 19.858C 0.808286 19.7894 1.01371 19.692 1.31143 19.5857C 1.90057 19.3683 2.83629 19.1126 3.93286 18.7657C 4.48086 18.5914 5.06743 18.3951 5.68514 18.1749C 6.31286 17.954 6.95571 17.6711 7.59086 17.3214C 8.91686 16.5123 10.026 15.6094 11.1126 14.4434Z"/>
<path id="path11_fill" fill-rule="evenodd" d="M 0.0831235 1.34714C -0.190877 0.622857 0.300266 0 0.300266 0C 0.300266 0 1.03941 0.484571 1.33141 1.15886C 1.62341 1.83314 1.32855 2.52171 1.32855 2.52171C 1.32855 2.52171 0.357123 2.07171 0.0831235 1.34714Z"/>
<path id="path12_fill" fill-rule="evenodd" d="M 0.0010807 1.08114C 0.0325093 0.358286 0.674509 0 0.674509 0C 0.674509 0 1.13765 0.690571 1.1368 1.38114C 1.13565 2.07143 0.622224 2.55343 0.622224 2.55343C 0.622224 2.55343 -0.0300622 1.80429 0.0010807 1.08114Z"/>
<path id="path13_fill" fill-rule="evenodd" d="M 1.198 0.00521899C 2.00143 -0.0542096 2.94486 0.413505 2.94486 0.413505C 2.94486 0.413505 2.692 1.15979 1.86857 1.27922C 1.04571 1.39808 0 0.72779 0 0.72779C 0 0.72779 0.395143 0.0643618 1.198 0.00521899Z"/>
<path id="path14_fill" fill-rule="evenodd" d="M 1.27286 0.0125759C 2.04086 0.114004 2.83229 0.740862 2.83229 0.740862C 2.83229 0.740862 2.44286 1.4 1.646 1.34858C 0.849143 1.29686 0 0.456576 0 0.456576C 0 0.456576 0.504286 -0.0888527 1.27286 0.0125759Z"/>
<path id="path15_fill" fill-rule="evenodd" d="M 1.28714 0.0821847C 1.99114 0.333042 2.60829 1.08161 2.60829 1.08161C 2.60829 1.08161 2.10829 1.62161 1.36943 1.40933C 0.630571 1.19676 0 0.235613 0 0.235613C 0 0.235613 0.584 -0.168958 1.28714 0.0821847Z"/>
<path id="path16_fill" fill-rule="evenodd" d="M 1.23829 0.211085C 1.84886 0.59337 2.27829 1.42251 2.27829 1.42251C 2.27829 1.42251 1.69914 1.8208 1.04914 1.46537C 0.398571 1.10966 0 0.0819418 0 0.0819418C 0 0.0819418 0.627429 -0.17063 1.23829 0.211085Z"/>
<path id="path17_fill" fill-rule="evenodd" d="M 1.128 0.397361C 1.62114 0.88479 1.85543 1.7505 1.85543 1.7505C 1.85543 1.7505 1.23429 1.99479 0.699429 1.52136C 0.164857 1.04793 0 0.0082186 0 0.0082186C 0 0.0082186 0.634286 -0.0906385 1.128 0.397361Z"/>
<path id="path18_fill" fill-rule="evenodd" d="M 0.96576 0.610857C 1.32319 1.17371 1.36319 2.032 1.36319 2.032C 1.36319 2.032 0.737474 2.12057 0.340903 1.56114C -0.056526 1.002 0.00318826 0 0.00318826 0C 0.00318826 0 0.608617 0.0477143 0.96576 0.610857Z"/>
<path id="path19_fill" fill-rule="evenodd" d="M 0.105118 1.52943C -0.141168 0.92 0.122546 0 0.122546 0C 0.122546 0 0.666832 0.177143 0.876546 0.781714C 1.08655 1.38571 0.942832 2.19771 0.942832 2.19771C 0.942832 2.19771 0.351403 2.13943 0.105118 1.52943Z"/>
<path id="path20_fill" fill-rule="evenodd" d="M 2.94242 14.4434C 1.86614 12.8769 1.09042 11.3386 0.613849 9.76914C 0.578707 9.78343 0.558135 9.79029 0.558135 9.79029C 0.558135 9.79029 0.482421 9.53486 0.456421 9.20629C 0.276421 8.50286 0.154135 7.79257 0.0927065 7.06914C 0.0381351 7.07914 0.0038494 7.08171 0.0038494 7.08171C 0.0038494 7.08171 -0.0204363 6.74229 0.0529923 6.36429C 0.031278 5.68029 0.0621351 4.98343 0.145278 4.26971C 0.0909923 4.26714 0.0587065 4.26229 0.0587065 4.26229C 0.0587065 4.26229 0.102135 3.97771 0.228421 3.66314C 0.290135 3.26343 0.368421 2.858 0.462135 2.44629L 0.444707 2.46C 0.444707 2.46 0.209849 1.744 0.500135 1.04C 0.790707 0.336857 1.45814 0 1.45814 0C 1.45814 0 1.53814 0.724857 1.26842 1.382C 1.02899 1.96571 0.566135 2.362 0.465564 2.44343C 0.384707 2.82571 0.315849 3.206 0.260707 3.58486C 0.350421 3.38057 0.475849 3.17286 0.647278 3.02829C 1.10871 2.63857 1.66642 2.84229 1.66642 2.84229C 1.66642 2.84229 1.48242 3.56514 1.05356 3.95914C 0.742707 4.24429 0.361564 4.27571 0.174135 4.27057C 0.106707 4.91714 0.079278 5.55771 0.0938494 6.19257C 0.142992 6.01514 0.216135 5.83943 0.327278 5.69571C 0.715564 5.19543 1.34185 5.27514 1.34185 5.27514C 1.34185 5.27514 1.31699 6.03971 0.963564 6.53714C 0.714421 6.88829 0.339849 7.01457 0.140707 7.05914C 0.195849 7.70829 0.297564 8.34914 0.448135 8.98257C 0.449849 8.75514 0.482707 8.514 0.583278 8.30743C 0.872992 7.70971 1.53699 7.64914 1.53699 7.64914C 1.53699 7.64914 1.67756 8.42314 1.42328 9.00857C 1.23242 9.44771 0.840421 9.66829 0.656992 9.75057C 0.857278 10.406 1.11271 11.0526 1.42642 11.6871C 1.34385 11.4066 1.28928 11.0649 1.36614 10.7571C 1.53585 10.0834 2.20614 9.87371 2.20614 9.87371C 2.20614 9.87371 2.51071 10.6231 2.37556 11.274C 2.26499 11.8071 1.85642 12.1343 1.71214 12.2354C 2.09985 12.9374 2.56156 13.6246 3.10185 14.2971C 3.71214 14.9309 4.32985 15.4811 4.98614 15.9811C 4.73356 15.7443 4.33928 15.3046 4.26014 14.8089C 4.14128 14.0683 4.72328 13.5689 4.72328 13.5689C 4.72328 13.5689 5.33156 14.1703 5.47471 14.8694C 5.60556 15.5071 5.27071 16.0614 5.21156 16.1526C 5.65071 16.4743 6.10842 16.7749 6.59556 17.0626C 7.22242 17.396 7.85556 17.6637 8.47214 17.8714C 9.09842 18.0849 9.69814 18.278 10.259 18.4469C 11.381 18.7837 12.3584 19.0303 13.0364 19.2574C 13.3756 19.3683 13.6361 19.4777 13.8053 19.5617C 13.889 19.6043 13.9527 19.6377 13.9927 19.6631C 14.0336 19.688 14.0547 19.7011 14.0547 19.7011C 13.8556 19.8103 13.7544 19.8646 13.5498 19.9689C 13.5498 19.9689 13.5353 19.9591 13.5067 19.94C 13.4801 19.9206 13.4341 19.8931 13.373 19.858C 13.2467 19.7894 13.0413 19.692 12.7433 19.5857C 12.1541 19.3683 11.2181 19.1126 10.1221 18.7657C 9.57385 18.5914 8.98728 18.3951 8.36985 18.1749C 7.74185 17.954 7.09899 17.6711 6.46385 17.3214C 5.13785 16.5123 4.02842 15.6094 2.94242 14.4434Z"/>
</defs>
</svg>
