<svg width="29" height="29" viewBox="0 0 29 29" version="1.1" xmlns="http://www.w3.org/2000/svg" xmlns:xlink="http://www.w3.org/1999/xlink">
<title>Group 18</title>
<desc>Created using Figma</desc>
<g id="Canvas" transform="translate(-7852 -5982)">
<g id="Group 18">
<g id="Image Placeholder">
<use xlink:href="#path0_fill" transform="translate(7852 5982)" fill="#FFC141"/>
</g>
<g id="Shape">
<use xlink:href="#path1_fill" transform="translate(7857 5987.5)" fill="#FFFFFF"/>
</g>
</g>
</g>
<defs>
<path id="path0_fill" fill-rule="evenodd" d="M 0 6.5C 0 2.91015 2.91015 0 6.5 0L 22.5 0C 26.0899 0 29 2.91015 29 6.5L 29 22.5C 29 26.0899 26.0899 29 22.5 29L 6.5 29C 2.91015 29 0 26.0899 0 22.5L 0 6.5Z"/>
<path id="path1_fill" fill-rule="evenodd" d="M 6.6499 9.2627C 5.9944 9.2627 5.4624 9.79469 5.4624 10.4502C 5.4624 11.1057 5.9944 11.6377 6.6499 11.6377C 7.3054 11.6377 7.8374 11.1057 7.8374 10.4502C 7.8374 9.79469 7.3054 9.2627 6.6499 9.2627ZM 12.3501 9.2627C 11.6946 9.2627 11.1626 9.79469 11.1626 10.4502C 11.1626 11.1057 11.6946 11.6377 12.3501 11.6377C 13.0056 11.6377 13.5376 11.1057 13.5376 10.4502C 13.5376 9.79469 13.0056 9.2627 12.3501 9.2627ZM 9.5 0C 4.256 0 0 4.256 0 9.5C 0 14.744 4.256 19 9.5 19C 14.744 19 19 14.744 19 9.5C 19 4.256 14.744 0 9.5 0ZM 9.4999 17.1C 5.3104 17.1 1.8999 13.6895 1.8999 9.50004C 1.8999 9.22454 1.9189 8.94904 1.9474 8.68304C 4.1894 7.68554 5.9659 5.85204 6.8969 3.58154C 8.6164 6.01354 11.4474 7.60004 14.6489 7.60004C 15.3899 7.60004 16.1024 7.51454 16.7864 7.35304C 16.9859 8.02754 17.0999 8.74954 17.0999 9.50004C 17.0999 13.6895 13.6894 17.1 9.4999 17.1Z"/>
</defs>
</svg>
