<svg width="29" height="29" viewBox="0 0 29 29" version="1.1" xmlns="http://www.w3.org/2000/svg" xmlns:xlink="http://www.w3.org/1999/xlink">
<title>Group 23</title>
<desc>Created using Figma</desc>
<g id="Canvas" transform="translate(-7852 -5886)">
<g id="Group 23">
<g id="Image Placeholder">
<use xlink:href="#path0_fill" transform="translate(7852 5886)" fill="#3FE09D"/>
</g>
<g id="gift">
<use xlink:href="#path1_fill" transform="translate(7859.5 5892.5)" fill="#FFFFFF"/>
</g>
</g>
</g>
<defs>
<path id="path0_fill" fill-rule="evenodd" d="M 0 6.5C 0 2.91015 2.91015 0 6.5 0L 22.5 0C 26.0899 0 29 2.91015 29 6.5L 29 22.5C 29 26.0899 26.0899 29 22.5 29L 6.5 29C 2.91015 29 0 26.0899 0 22.5L 0 6.5Z"/>
<path id="path1_fill" fill-rule="evenodd" d="M 1 3.5C 1 4.03662 1.12109 4.54541 1.33691 5L 1 5C 0.447754 5 0 5.44775 0 6L 0 9L 6 9L 6 7.54346C 5.94287 6.98291 5.81006 6.38818 5.51953 6.02783C 5.1543 5.57422 4.34766 4.8501 3.68359 4.28027C 3.12354 3.79932 3.00146 2.93311 3.42432 2.32812C 3.9541 1.79883 4.8125 1.79883 5.3418 2.32812L 5.41553 2.40186C 5.41553 2.40186 5.80371 3.32422 6.31494 3.54395C 6.70947 3.71338 6.90527 3.68555 6.97461 3.66406L 6.97461 3.65186C 6.97461 3.65186 6.97949 3.65479 6.98975 3.65869C 7 3.65479 7.00439 3.65186 7.00439 3.65186L 7.00439 3.66406C 7.07373 3.68555 7.26953 3.71338 7.66406 3.54395C 8.17529 3.32422 8.56348 2.40186 8.56348 2.40186L 8.63721 2.32812C 9.1665 1.79883 10.0249 1.79883 10.5547 2.32812C 10.9775 2.93311 10.8555 3.79932 10.2954 4.28027C 9.63135 4.8501 8.82471 5.57422 8.45947 6.02783C 8.2002 6.34961 8.06641 6.8584 8 7.36279L 8 9L 14 9L 14 6C 14 5.44775 13.5522 5 13 5L 12.6631 5C 12.8789 4.54541 13 4.03662 13 3.5C 13 1.56689 11.4331 0 9.5 0C 8.52051 0 7.63525 0.401855 7 1.05029C 6.36475 0.401855 5.47949 0 4.5 0C 2.56689 0 1 1.56689 1 3.5ZM 6 11L 0 11L 0 16L 6 16L 6 11ZM 14 11L 8 11L 8 16L 14 16L 14 11Z"/>
</defs>
</svg>
